{"title":"The Whip and the Body AKA La frusta e il corpo 1963 Mario Bava","uid":9442366,"size":1569373155,"categoryP":"video","categoryS":"movies","magnet":"?xt=urn:btih:bf9f093fdba87015423810d2c147ed50e7eda934&amp;dn=The+Whip+and+the+Body+AKA+La+frusta+e+il+corpo+1963+Mario+Bava&amp;tr=udp%3A%2F%2Ftracker.openbittorrent.com%3A80&amp;tr=udp%3A%2F%2Fopen.demonii.com%3A1337&amp;tr=udp%3A%2F%2Ftracker.coppersurfer.tk%3A6969&amp;tr=udp%3A%2F%2Fexodus.desync.com%3A6969","seeders":0,"leechers":3,"uploader":"mago1974","files":1,"time":1389034351,"description":"General\nUnique ID                      : 231982019124516688881082275103411762076 (0xAE861C99A001E54380ECA57649DB739C)\nComplete name                  : The Whip And The Body (Custom)-CG.mkv\nFormat                         : Matroska\nFormat version                 : Version 2\nFile size                      : 1.46 GiB\nDuration                       : 1h 23mn\nOverall bit rate               : 2 508 Kbps\nWriting application            : HandBrake 0.9.5\nWriting library                : libmkv 0.6.4.1\n\nVideo\nID                             : 1\nFormat                         : AVC\nFormat/Info                    : Advanced Video Codec\nFormat profile                 : &lt;a class=&quot;__cf_email__&quot; href=&quot;/cdn-cgi/l/email-protection&quot; data-cfemail=&quot;d29abbb5ba929ee1fce3&quot;&gt;[email&amp;#160;protected]&lt;/a&gt;&lt;script cf-hash='f9e31' type=&quot;text/javascript&quot;&gt;\n/* &lt;![CDATA[ */!function(){try{var t=&quot;currentScript&quot;in document?document.currentScript:function(){for(var t=document.getElementsByTagName(&quot;script&quot;),e=t.length;e--;)if(t[e].getAttribute(&quot;cf-hash&quot;))return t[e]}();if(t&amp;&amp;t.previousSibling){var e,r,n,i,c=t.previousSibling,a=c.getAttribute(&quot;data-cfemail&quot;);if(a){for(e=&quot;&quot;,r=parseInt(a.substr(0,2),16),n=2;a.length-n;n+=2)i=parseInt(a.substr(n,2),16)^r,e+=String.fromCharCode(i);e=document.createTextNode(e),c.parentNode.replaceChild(e,c)}}}catch(u){}}();/* ]]&gt; */&lt;/script&gt;\nFormat settings, CABAC         : Yes\nFormat settings, ReFrames      : 5 frames\nCodec ID                       : V_MPEG4/ISO/AVC\nDuration                       : 1h 23mn\nBit rate                       : 1 882 Kbps\nWidth                          : 720 pixels\nHeight                         : 532 pixels\nDisplay aspect ratio           : 1.925\nFrame rate mode                : Constant\nFrame rate                     : 25.000 fps\nColor space                    : YUV\nChroma subsampling             : 4:2:0\nBit depth                      : 8 bits\nScan type                      : Progressive\nBits/(Pixel*Frame)             : 0.197\nStream size                    : 1.10 GiB (75%)\nLanguage                       : English\nDefault                        : Yes\nForced                         : No\nColor primaries                : BT.601 NTSC\nTransfer characteristics       : BT.709\nMatrix coefficients            : BT.601\n\nAudio #1\nID                             : 2\nFormat                         : AC-3\nFormat/Info                    : Audio Coding 3\nMode extension                 : CM (complete main)\nFormat settings, Endianness    : Big\nCodec ID                       : A_AC3\nDuration                       : 1h 23mn\nBit rate mode                  : Constant\nBit rate                       : 192 Kbps\nChannel count                  : 1 channel\nChannel positions              : Front: C\nSampling rate                  : 48.0 KHz\nBit depth                      : 16 bits\nCompression mode               : Lossy\nStream size                    : 115 MiB (8%)\nDefault                        : Yes\nForced                         : No\n\nAudio #2\nID                             : 3\nFormat                         : AC-3\nFormat/Info                    : Audio Coding 3\nMode extension                 : CM (complete main)\nFormat settings, Endianness    : Big\nCodec ID                       : A_AC3\nDuration                       : 1h 23mn\nBit rate mode                  : Constant\nBit rate                       : 192 Kbps\nChannel count                  : 1 channel\nChannel positions              : Front: C\nSampling rate                  : 48.0 KHz\nBit depth                      : 16 bits\nCompression mode               : Lossy\nStream size                    : 115 MiB (8%)\nLanguage                       : Italian\nDefault                        : No\nForced                         : No\n\nAudio #3\nID                             : 4\nFormat                         : AC-3\nFormat/Info                    : Audio Coding 3\nMode extension                 : CM (complete main)\nFormat settings, Endianness    : Big\nCodec ID                       : A_AC3\nDuration                       : 1h 23mn\nBit rate mode                  : Constant\nBit rate                       : 192 Kbps\nChannel count                  : 1 channel\nChannel positions              : Front: C\nSampling rate                  : 48.0 KHz\nBit depth                      : 16 bits\nCompression mode               : Lossy\nStream size                    : 115 MiB (8%)\nLanguage                       : English\nDefault                        : No\nForced                         : No\n\nText\nID                             : 5\nFormat                         : VobSub\nCodec ID                       : S_VOBSUB\nCodec ID/Info                  : The same subtitle format used on DVDs\nLanguage                       : English\nDefault                        : No\nForced                         : No\n\nMenu\n00:00:00.000                   : Chapter 1\n00:07:21.200                   : Chapter 2\n00:10:38.960                   : Chapter 3\n00:15:06.800                   : Chapter 4\n00:21:02.000                   : Chapter 5\n00:25:21.200                   : Chapter 6\n00:28:58.160                   : Chapter 7\n00:34:24.080                   : Chapter 8\n00:37:26.960                   : Chapter 9\n00:43:38.000                   : Chapter 10\n00:48:38.030                   : Chapter 11\n00:52:58.160                   : Chapter 12\n00:56:41.960                   : Chapter 13\n01:00:29.960                   : Chapter 14\n01:05:33.800                   : Chapter 15\n01:10:04.040                   : Chapter 16\n01:15:16.040                   : Chapter 17\n01:18:18.920                   : Chapter 18\n","torrent":{"xt":"urn:btih:bf9f093fdba87015423810d2c147ed50e7eda934","amp;dn":"The+Whip+and+the+Body+AKA+La+frusta+e+il+corpo+1963+Mario+Bava","amp;tr":["udp%3A%2F%2Ftracker.openbittorrent.com%3A80","udp%3A%2F%2Fopen.demonii.com%3A1337","udp%3A%2F%2Ftracker.coppersurfer.tk%3A6969","udp%3A%2F%2Fexodus.desync.com%3A6969"],"infoHash":"bf9f093fdba87015423810d2c147ed50e7eda934","infoHashBuffer":{"type":"Buffer","data":[191,159,9,63,219,168,112,21,66,56,16,210,193,71,237,80,231,237,169,52]},"announce":[],"urlList":[]}}